<svg width="1200" height="423" viewBox="0 0 1200 423" xmlns="http://www.w3.org/2000/svg"><defs><pattern id="satori_pattern_id_1" x="0" y="0" width="0.08333333333333333" height="0.2364066193853428" patternUnits="objectBoundingBox"><radialGradient id="satori_radial_id_1"><stop offset="0" stop-color="lightgray"/><stop offset="0.02" stop-color="lightgray"/><stop offset="0" stop-color="transparent"/><stop offset="1" stop-color="transparent"/></radialGradient><mask id="satori_mask_id_1"><rect x="0" y="0" width="100" height="100" fill="#fff"/></mask><rect x="0" y="0" width="100" height="100" fill="transparent"/><circle cx="75" cy="75" width="100" height="100" r="106.06601717798213" fill="url(#satori_radial_id_1)" mask="url(#satori_mask_id_1)"/></pattern><pattern id="satori_pattern_id_0" x="0" y="0" width="0.08333333333333333" height="0.2364066193853428" patternUnits="objectBoundingBox"><radialGradient id="satori_radial_id_0"><stop offset="0" stop-color="lightgray"/><stop offset="0.02" stop-color="lightgray"/><stop offset="0" stop-color="transparent"/><stop offset="1" stop-color="transparent"/></radialGradient><mask id="satori_mask_id_0"><rect x="0" y="0" width="100" height="100" fill="#fff"/></mask><rect x="0" y="0" width="100" height="100" fill="transparent"/><circle cx="25" cy="25" width="100" height="100" r="106.06601717798213" fill="url(#satori_radial_id_0)" mask="url(#satori_mask_id_0)"/></pattern></defs><mask id="satori_om-id"><rect x="0" y="0" width="1200" height="423" fill="#fff"/></mask><rect x="0" y="0" width="1200" height="423" fill="white"/><rect x="0" y="0" width="1200" height="423" fill="url(#satori_pattern_id_1)"/><rect x="0" y="0" width="1200" height="423" fill="url(#satori_pattern_id_0)"/><mask id="satori_om-id-0"><rect x="42" y="42" width="208" height="24" fill="#fff"/></mask><mask id="satori_om-id-0-0"><rect x="42" y="42" width="24" height="24" fill="#fff"/></mask><rect x="42" y="42" width="24" height="24" fill="black"/><mask id="satori_om-id-0-1"><rect x="74" y="42" width="176" height="24" fill="#fff"/></mask><path fill="black" d="M81.4 49.5L77.8 60.7L74.5 60.7L79.5 46.2L83.5 46.2L88.5 60.7L85.2 60.7L81.5 49.5L81.4 49.5ZM77.6 57.4L77.6 55.0L85.3 55.0L85.3 57.4L77.6 57.4ZM92.9 60.7L89.8 60.7L89.8 49.8L92.8 49.8L92.8 51.7L92.9 51.7Q93.2 50.7 93.9 50.2Q94.6 49.7 95.5 49.7L95.5 49.7Q95.7 49.7 96.0 49.7Q96.3 49.7 96.5 49.8L96.5 49.8L96.5 52.4Q96.3 52.4 95.9 52.3Q95.5 52.3 95.2 52.3L95.2 52.3Q94.5 52.3 94.0 52.6Q93.5 52.9 93.2 53.4Q92.9 53.9 92.9 54.5L92.9 54.5L92.9 60.7ZM102.2 60.9L102.2 60.9Q100.5 60.9 99.3 60.2Q98.1 59.6 97.4 58.3Q96.7 57.0 96.7 55.3L96.7 55.3Q96.7 53.6 97.4 52.4Q98.1 51.1 99.2 50.4Q100.4 49.7 102.0 49.7L102.0 49.7Q103.1 49.7 104.1 50.0Q105.0 50.4 105.7 51.0Q106.4 51.7 106.8 52.8Q107.2 53.8 107.2 55.2L107.2 55.2L107.2 56.0L98.0 56.0L98.0 54.2L104.3 54.2Q104.3 53.5 104.0 53.0Q103.8 52.5 103.2 52.2Q102.7 51.9 102.1 51.9L102.1 51.9Q101.4 51.9 100.9 52.2Q100.3 52.6 100.0 53.1Q99.7 53.6 99.7 54.3L99.7 54.3L99.7 56.0Q99.7 56.9 100.0 57.4Q100.3 58.0 100.9 58.4Q101.4 58.7 102.2 58.7L102.2 58.7Q102.7 58.7 103.1 58.5Q103.6 58.4 103.9 58.1Q104.1 57.8 104.3 57.4L104.3 57.4L107.1 57.6Q106.9 58.6 106.2 59.4Q105.6 60.1 104.5 60.5Q103.5 60.9 102.2 60.9Z M115.5 64.8L115.5 64.8Q114.9 64.8 114.4 64.7Q113.9 64.6 113.6 64.5L113.6 64.5L114.3 62.2Q114.8 62.4 115.3 62.4Q115.7 62.4 116.0 62.2Q116.3 62.0 116.5 61.5L116.5 61.5L116.7 61.0L112.8 49.8L116.0 49.8L118.2 57.8L118.3 57.8L120.6 49.8L123.8 49.8L119.6 61.9Q119.3 62.8 118.8 63.4Q118.2 64.1 117.4 64.5Q116.6 64.8 115.5 64.8ZM129.6 60.9L129.6 60.9Q128.0 60.9 126.8 60.2Q125.6 59.5 124.9 58.3Q124.2 57.0 124.2 55.3L124.2 55.3Q124.2 53.6 124.9 52.4Q125.6 51.1 126.8 50.4Q128.0 49.7 129.6 49.7L129.6 49.7Q131.3 49.7 132.5 50.4Q133.7 51.1 134.3 52.4Q135.0 53.6 135.0 55.3L135.0 55.3Q135.0 57.0 134.3 58.3Q133.7 59.5 132.5 60.2Q131.3 60.9 129.6 60.9ZM129.6 58.6L129.6 58.6Q130.4 58.6 130.9 58.2Q131.4 57.7 131.7 57.0Q131.9 56.2 131.9 55.3L131.9 55.3Q131.9 54.3 131.7 53.6Q131.4 52.8 130.9 52.4Q130.4 52.0 129.6 52.0L129.6 52.0Q128.9 52.0 128.4 52.4Q127.8 52.8 127.6 53.6Q127.3 54.3 127.3 55.3L127.3 55.3Q127.3 56.2 127.6 57.0Q127.8 57.7 128.4 58.2Q128.9 58.6 129.6 58.6ZM143.6 56.1L143.6 56.1L143.6 49.8L146.7 49.8L146.7 60.7L143.8 60.7L143.8 58.7L143.6 58.7Q143.3 59.7 142.4 60.3Q141.6 60.9 140.3 60.9L140.3 60.9Q139.2 60.9 138.4 60.4Q137.6 59.9 137.1 59.0Q136.6 58.0 136.6 56.8L136.6 56.8L136.6 49.8L139.7 49.8L139.7 56.2Q139.7 57.2 140.2 57.7Q140.7 58.3 141.6 58.3L141.6 58.3Q142.1 58.3 142.6 58.1Q143.1 57.8 143.3 57.3Q143.6 56.8 143.6 56.1Z M156.5 60.9L156.5 60.9Q155.5 60.9 154.7 60.6Q153.9 60.2 153.4 59.5Q152.9 58.8 152.9 57.7L152.9 57.7Q152.9 56.8 153.3 56.1Q153.6 55.5 154.2 55.2Q154.7 54.8 155.5 54.6Q156.2 54.4 157.0 54.3L157.0 54.3Q158.0 54.2 158.6 54.1Q159.1 54.0 159.4 53.9Q159.7 53.7 159.7 53.3L159.7 53.3L159.7 53.3Q159.7 52.6 159.2 52.2Q158.8 51.9 158.0 51.9L158.0 51.9Q157.2 51.9 156.7 52.2Q156.3 52.6 156.1 53.1L156.1 53.1L153.3 52.9Q153.5 51.9 154.1 51.2Q154.8 50.5 155.8 50.1Q156.8 49.7 158.1 49.7L158.1 49.7Q159.0 49.7 159.8 49.9Q160.6 50.1 161.3 50.5Q161.9 51.0 162.3 51.7Q162.7 52.4 162.7 53.4L162.7 53.4L162.7 60.7L159.8 60.7L159.8 59.2L159.7 59.2Q159.5 59.7 159.0 60.1Q158.6 60.5 158.0 60.7Q157.4 60.9 156.5 60.9ZM157.4 58.8L157.4 58.8Q158.1 58.8 158.6 58.6Q159.1 58.3 159.4 57.9Q159.7 57.4 159.7 56.8L159.7 56.8L159.7 55.7Q159.5 55.8 159.3 55.8Q159.1 55.9 158.7 56.0Q158.4 56.0 158.1 56.1Q157.8 56.1 157.6 56.2L157.6 56.2Q157.1 56.2 156.7 56.4Q156.3 56.6 156.0 56.9Q155.8 57.1 155.8 57.6L155.8 57.6Q155.8 58.2 156.3 58.5Q156.7 58.8 157.4 58.8Z M172.1 60.7L169.0 60.7L169.0 49.8L172.0 49.8L172.0 51.7L172.1 51.7Q172.4 50.7 173.1 50.2Q173.8 49.7 174.7 49.7L174.7 49.7Q174.9 49.7 175.2 49.7Q175.5 49.7 175.7 49.8L175.7 49.8L175.7 52.4Q175.4 52.4 175.1 52.3Q174.7 52.3 174.4 52.3L174.4 52.3Q173.7 52.3 173.2 52.6Q172.7 52.9 172.4 53.4Q172.1 53.9 172.1 54.5L172.1 54.5L172.1 60.7ZM181.4 60.9L181.4 60.9Q179.7 60.9 178.5 60.2Q177.2 59.6 176.6 58.3Q175.9 57.0 175.9 55.3L175.9 55.3Q175.9 53.6 176.6 52.4Q177.2 51.1 178.4 50.4Q179.6 49.7 181.2 49.7L181.2 49.7Q182.3 49.7 183.2 50.0Q184.2 50.4 184.9 51.0Q185.6 51.7 186.0 52.8Q186.4 53.8 186.4 55.2L186.4 55.2L186.4 56.0L177.1 56.0L177.1 54.2L183.5 54.2Q183.5 53.5 183.2 53.0Q182.9 52.5 182.4 52.2Q181.9 51.9 181.3 51.9L181.3 51.9Q180.6 51.9 180.1 52.2Q179.5 52.6 179.2 53.1Q178.9 53.6 178.9 54.3L178.9 54.3L178.9 56.0Q178.9 56.9 179.2 57.4Q179.5 58.0 180.1 58.4Q180.6 58.7 181.4 58.7L181.4 58.7Q181.9 58.7 182.3 58.5Q182.7 58.4 183.0 58.1Q183.3 57.8 183.5 57.4L183.5 57.4L186.3 57.6Q186.1 58.6 185.4 59.4Q184.8 60.1 183.7 60.5Q182.7 60.9 181.4 60.9ZM191.1 60.9L191.1 60.9Q190.1 60.9 189.3 60.6Q188.4 60.2 188.0 59.5Q187.5 58.8 187.5 57.7L187.5 57.7Q187.5 56.8 187.8 56.1Q188.2 55.5 188.7 55.2Q189.3 54.8 190.1 54.6Q190.8 54.4 191.6 54.3L191.6 54.3Q192.6 54.2 193.1 54.1Q193.7 54.0 194.0 53.9Q194.2 53.7 194.2 53.3L194.2 53.3L194.2 53.3Q194.2 52.6 193.8 52.2Q193.4 51.9 192.6 51.9L192.6 51.9Q191.8 51.9 191.3 52.2Q190.8 52.6 190.7 53.1L190.7 53.1L187.9 52.9Q188.1 51.9 188.7 51.2Q189.4 50.5 190.3 50.1Q191.3 49.7 192.6 49.7L192.6 49.7Q193.5 49.7 194.4 49.9Q195.2 50.1 195.9 50.5Q196.5 51.0 196.9 51.7Q197.3 52.4 197.3 53.4L197.3 53.4L197.3 60.7L194.4 60.7L194.4 59.2L194.3 59.2Q194.1 59.7 193.6 60.1Q193.2 60.5 192.6 60.7Q191.9 60.9 191.1 60.9ZM192.0 58.8L192.0 58.8Q192.7 58.8 193.2 58.6Q193.7 58.3 194.0 57.9Q194.3 57.4 194.3 56.8L194.3 56.8L194.3 55.7Q194.1 55.8 193.9 55.8Q193.6 55.9 193.3 56.0Q193.0 56.0 192.7 56.1Q192.4 56.1 192.2 56.2L192.2 56.2Q191.6 56.2 191.2 56.4Q190.8 56.6 190.6 56.9Q190.4 57.1 190.4 57.6L190.4 57.6Q190.4 58.2 190.8 58.5Q191.3 58.8 192.0 58.8ZM199.3 46.2L202.3 46.2L202.3 60.7L199.3 60.7L199.3 46.2Z M208.4 49.8L215.1 49.8L215.1 52.1L208.4 52.1L208.4 49.8ZM212.9 60.7L209.9 60.7L209.9 49.0Q209.9 47.8 210.4 47.1Q210.9 46.3 211.7 45.9Q212.5 45.5 213.5 45.5L213.5 45.5Q214.2 45.5 214.8 45.6Q215.4 45.7 215.6 45.8L215.6 45.8L215.1 48.1Q214.9 48.0 214.7 48.0Q214.4 47.9 214.1 47.9L214.1 47.9Q213.5 47.9 213.2 48.2Q212.9 48.5 212.9 49.1L212.9 49.1L212.9 60.7ZM219.4 60.9L219.4 60.9Q218.3 60.9 217.5 60.6Q216.7 60.2 216.2 59.5Q215.7 58.8 215.7 57.7L215.7 57.7Q215.7 56.8 216.1 56.1Q216.4 55.5 217.0 55.2Q217.6 54.8 218.3 54.6Q219.0 54.4 219.8 54.3L219.8 54.3Q220.8 54.2 221.4 54.1Q221.9 54.0 222.2 53.9Q222.5 53.7 222.5 53.3L222.5 53.3L222.5 53.3Q222.5 52.6 222.1 52.2Q221.6 51.9 220.9 51.9L220.9 51.9Q220.0 51.9 219.6 52.2Q219.1 52.6 218.9 53.1L218.9 53.1L216.1 52.9Q216.3 51.9 217.0 51.2Q217.6 50.5 218.6 50.1Q219.6 49.7 220.9 49.7L220.9 49.7Q221.8 49.7 222.6 49.9Q223.4 50.1 224.1 50.5Q224.7 51.0 225.1 51.7Q225.5 52.4 225.5 53.4L225.5 53.4L225.5 60.7L222.6 60.7L222.6 59.2L222.5 59.2Q222.3 59.7 221.8 60.1Q221.4 60.5 220.8 60.7Q220.2 60.9 219.4 60.9ZM220.2 58.8L220.2 58.8Q220.9 58.8 221.4 58.6Q221.9 58.3 222.2 57.9Q222.5 57.4 222.5 56.8L222.5 56.8L222.5 55.7Q222.4 55.8 222.1 55.8Q221.9 55.9 221.6 56.0Q221.3 56.0 220.9 56.1Q220.6 56.1 220.4 56.2L220.4 56.2Q219.9 56.2 219.5 56.4Q219.1 56.6 218.8 56.9Q218.6 57.1 218.6 57.6L218.6 57.6Q218.6 58.2 219.1 58.5Q219.5 58.8 220.2 58.8ZM230.6 54.4L230.6 54.4L230.6 60.7L227.5 60.7L227.5 49.8L230.4 49.8L230.4 51.7L230.5 51.7Q230.9 50.8 231.8 50.2Q232.6 49.7 233.8 49.7L233.8 49.7Q235.0 49.7 235.8 50.2Q236.6 50.7 237.1 51.6Q237.6 52.5 237.6 53.8L237.6 53.8L237.6 60.7L234.6 60.7L234.6 54.3Q234.6 53.3 234.1 52.7Q233.5 52.2 232.6 52.2L232.6 52.2Q232.0 52.2 231.5 52.4Q231.1 52.7 230.8 53.2Q230.6 53.7 230.6 54.4ZM244.9 56.4L242.2 56.4L242.2 56.1Q242.3 54.9 242.5 54.1Q242.7 53.4 243.1 52.9Q243.5 52.5 244.1 52.1L244.1 52.1Q244.6 51.8 244.9 51.5Q245.2 51.2 245.5 50.9Q245.7 50.5 245.7 50.0L245.7 50.0Q245.7 49.5 245.4 49.2Q245.2 48.8 244.8 48.6Q244.4 48.4 243.9 48.4L243.9 48.4Q243.5 48.4 243.1 48.6Q242.6 48.8 242.4 49.2Q242.1 49.6 242.1 50.2L242.1 50.2L239.2 50.2Q239.2 48.7 239.9 47.8Q240.5 46.9 241.6 46.4Q242.7 46.0 243.9 46.0L243.9 46.0Q245.4 46.0 246.4 46.4Q247.5 46.9 248.1 47.8Q248.8 48.7 248.8 49.9L248.8 49.9Q248.8 50.7 248.5 51.4Q248.2 52.0 247.7 52.5Q247.2 53.0 246.6 53.4L246.6 53.4Q246.0 53.7 245.7 54.1Q245.3 54.5 245.1 54.9Q244.9 55.4 244.9 56.1L244.9 56.1L244.9 56.4ZM243.7 60.9L243.7 60.9Q242.9 60.9 242.4 60.4Q241.9 59.9 241.9 59.2L241.9 59.2Q241.9 58.5 242.4 58.0Q242.9 57.5 243.7 57.5L243.7 57.5Q244.3 57.5 244.8 58.0Q245.3 58.5 245.4 59.2L245.4 59.2Q245.3 59.7 245.1 60.1Q244.9 60.4 244.5 60.7Q244.1 60.9 243.7 60.9Z "/><mask id="satori_om-id-1"><rect x="332" y="136" width="536" height="151" fill="#fff"/></mask><rect x="332" y="136" width="536" height="151" fill="black"/><path fill="white" d="M417.3 238.6L417.3 238.6Q413.6 238.6 411.0 237.6Q408.4 236.6 406.8 234.9Q405.3 233.2 404.8 231.0L404.8 231.0L411.8 230.1Q412.2 230.9 412.8 231.6Q413.5 232.3 414.7 232.8Q415.8 233.2 417.5 233.2L417.5 233.2Q420.0 233.2 421.6 232.0Q423.2 230.8 423.2 228.0L423.2 228.0L423.2 223.0L422.8 223.0Q422.3 224.1 421.4 225.2Q420.4 226.2 418.8 226.8Q417.2 227.5 415.1 227.5L415.1 227.5Q412.0 227.5 409.5 226.0Q407.0 224.6 405.5 221.6Q404.0 218.7 404.0 214.2L404.0 214.2Q404.0 209.5 405.5 206.4Q407.0 203.3 409.5 201.8Q412.0 200.2 415.1 200.2L415.1 200.2Q417.3 200.2 418.9 201.0Q420.4 201.8 421.4 202.9Q422.3 204.1 422.8 205.2L422.8 205.2L423.1 205.2L423.1 200.6L430.6 200.6L430.6 228.1Q430.6 231.6 428.9 233.9Q427.2 236.3 424.2 237.5Q421.2 238.6 417.3 238.6ZM417.5 221.8L417.5 221.8Q419.3 221.8 420.6 220.9Q421.8 219.9 422.5 218.2Q423.2 216.5 423.2 214.1L423.2 214.1Q423.2 211.7 422.5 210.0Q421.9 208.2 420.6 207.2Q419.3 206.2 417.5 206.2L417.5 206.2Q415.6 206.2 414.3 207.2Q413.0 208.2 412.4 210.0Q411.7 211.8 411.7 214.1L411.7 214.1Q411.7 216.5 412.4 218.2Q413.1 219.9 414.3 220.8Q415.6 221.8 417.5 221.8ZM453.8 216.2L453.8 216.2L453.8 200.6L461.4 200.6L461.4 227.8L454.1 227.8L454.1 222.9L453.9 222.9Q452.9 225.3 450.8 226.7Q448.7 228.2 445.6 228.2L445.6 228.2Q442.9 228.2 440.8 227.0Q438.7 225.7 437.5 223.4Q436.4 221.1 436.4 217.9L436.4 217.9L436.4 200.6L443.9 200.6L443.9 216.6Q443.9 219.0 445.2 220.4Q446.5 221.8 448.6 221.8L448.6 221.8Q450.0 221.8 451.2 221.2Q452.4 220.5 453.1 219.3Q453.9 218.1 453.8 216.2ZM479.6 228.4L479.6 228.4Q475.3 228.4 472.3 226.7Q469.3 224.9 467.7 221.8Q466.0 218.6 466.0 214.3L466.0 214.3Q466.0 210.1 467.7 206.9Q469.3 203.8 472.3 202.0Q475.2 200.2 479.3 200.2L479.3 200.2Q482.0 200.2 484.3 201.1Q486.6 201.9 488.4 203.7Q490.1 205.4 491.1 208.0Q492.1 210.6 492.1 214.1L492.1 214.1L492.1 216.1L469.0 216.1L469.0 211.5L485.0 211.5Q485.0 209.8 484.2 208.6Q483.5 207.3 482.3 206.6Q481.0 205.9 479.4 205.9L479.4 205.9Q477.7 205.9 476.3 206.7Q475.0 207.4 474.3 208.8Q473.5 210.1 473.5 211.7L473.5 211.7L473.5 216.2Q473.5 218.2 474.3 219.7Q475.0 221.1 476.4 221.9Q477.8 222.7 479.7 222.7L479.7 222.7Q480.9 222.7 482.0 222.4Q483.0 222.0 483.8 221.3Q484.5 220.6 484.9 219.6L484.9 219.6L491.9 220.0Q491.4 222.6 489.7 224.4Q488.1 226.3 485.5 227.3Q482.9 228.4 479.6 228.4ZM519.4 208.3L519.4 208.3L512.5 208.8Q512.3 207.9 511.7 207.2Q511.1 206.4 510.2 206.0Q509.2 205.6 507.9 205.6L507.9 205.6Q506.1 205.6 504.9 206.3Q503.7 207.1 503.7 208.3L503.7 208.3Q503.7 209.3 504.5 209.9Q505.3 210.6 507.2 211.0L507.2 211.0L512.1 212.0Q516.1 212.8 518.0 214.6Q520.0 216.4 520.0 219.4L520.0 219.4Q520.0 222.1 518.4 224.1Q516.9 226.1 514.1 227.2Q511.4 228.4 507.9 228.4L507.9 228.4Q502.4 228.4 499.2 226.1Q496.0 223.8 495.5 219.9L495.5 219.9L502.9 219.6Q503.3 221.2 504.6 222.1Q505.9 222.9 507.9 222.9L507.9 222.9Q509.9 222.9 511.1 222.2Q512.3 221.4 512.3 220.2L512.3 220.2Q512.3 219.1 511.4 218.5Q510.6 217.8 508.8 217.4L508.8 217.4L504.1 216.5Q500.1 215.7 498.2 213.7Q496.2 211.8 496.2 208.7L496.2 208.7Q496.2 206.1 497.6 204.2Q499.1 202.3 501.7 201.2Q504.3 200.2 507.8 200.2L507.8 200.2Q512.9 200.2 515.9 202.4Q518.9 204.6 519.4 208.3ZM547.2 208.3L547.2 208.3L540.2 208.8Q540.0 207.9 539.5 207.2Q538.9 206.4 537.9 206.0Q537.0 205.6 535.7 205.6L535.7 205.6Q533.9 205.6 532.7 206.3Q531.5 207.1 531.5 208.3L531.5 208.3Q531.5 209.3 532.3 209.9Q533.1 210.6 535.0 211.0L535.0 211.0L539.9 212.0Q543.9 212.8 545.8 214.6Q547.8 216.4 547.8 219.4L547.8 219.4Q547.8 222.1 546.2 224.1Q544.6 226.1 541.9 227.2Q539.2 228.4 535.6 228.4L535.6 228.4Q530.2 228.4 527.0 226.1Q523.8 223.8 523.3 219.9L523.3 219.9L530.7 219.6Q531.0 221.2 532.3 222.1Q533.6 222.9 535.6 222.9L535.6 222.9Q537.6 222.9 538.9 222.2Q540.1 221.4 540.1 220.2L540.1 220.2Q540.1 219.1 539.2 218.5Q538.4 217.8 536.6 217.4L536.6 217.4L531.9 216.5Q527.9 215.7 525.9 213.7Q524.0 211.8 524.0 208.7L524.0 208.7Q524.0 206.1 525.4 204.2Q526.8 202.3 529.4 201.2Q532.0 200.2 535.5 200.2L535.5 200.2Q540.7 200.2 543.7 202.4Q546.7 204.6 547.2 208.3Z M561.6 200.6L578.0 200.6L578.0 206.3L561.6 206.3L561.6 200.6ZM565.3 220.5L565.3 194.0L572.9 194.0L572.9 219.5Q572.9 220.5 573.2 221.1Q573.5 221.7 574.1 221.9Q574.7 222.1 575.4 222.1L575.4 222.1Q576.0 222.1 576.5 222.0Q577.0 221.9 577.3 221.9L577.3 221.9L578.5 227.5Q577.9 227.7 576.9 227.9Q575.9 228.2 574.4 228.2L574.4 228.2Q571.7 228.3 569.6 227.5Q567.6 226.7 566.4 224.9Q565.3 223.1 565.3 220.5L565.3 220.5ZM590.7 212.1L590.7 212.1L590.7 227.8L583.2 227.8L583.2 191.5L590.5 191.5L590.5 205.4L590.8 205.4Q591.8 203.0 593.8 201.6Q595.9 200.2 599.0 200.2L599.0 200.2Q601.8 200.2 604.0 201.4Q606.1 202.7 607.3 205.0Q608.4 207.3 608.4 210.5L608.4 210.5L608.4 227.8L600.9 227.8L600.9 211.8Q600.9 209.3 599.6 207.9Q598.3 206.5 596.0 206.5L596.0 206.5Q594.5 206.5 593.3 207.2Q592.1 207.8 591.4 209.1Q590.8 210.3 590.7 212.1ZM626.5 228.4L626.5 228.4Q622.3 228.4 619.3 226.7Q616.2 224.9 614.6 221.8Q613.0 218.6 613.0 214.3L613.0 214.3Q613.0 210.1 614.6 206.9Q616.2 203.8 619.2 202.0Q622.2 200.2 626.2 200.2L626.2 200.2Q628.9 200.2 631.2 201.1Q633.6 201.9 635.3 203.7Q637.1 205.4 638.0 208.0Q639.0 210.6 639.0 214.1L639.0 214.1L639.0 216.1L616.0 216.1L616.0 211.5L631.9 211.5Q631.9 209.8 631.2 208.6Q630.5 207.3 629.2 206.6Q628.0 205.9 626.3 205.9L626.3 205.9Q624.6 205.9 623.3 206.7Q622.0 207.4 621.2 208.8Q620.5 210.1 620.4 211.7L620.4 211.7L620.4 216.2Q620.4 218.2 621.2 219.7Q622.0 221.1 623.3 221.9Q624.7 222.7 626.6 222.7L626.6 222.7Q627.9 222.7 628.9 222.4Q630.0 222.0 630.7 221.3Q631.5 220.6 631.9 219.6L631.9 219.6L638.9 220.0Q638.3 222.6 636.7 224.4Q635.0 226.3 632.5 227.3Q629.9 228.4 626.5 228.4Z M654.3 191.5L661.9 191.5L661.9 227.8L654.3 227.8L654.3 191.5ZM672.3 238.1L672.3 238.1Q670.9 238.1 669.6 237.8Q668.3 237.6 667.5 237.3L667.5 237.3L669.2 231.6Q670.6 232.1 671.6 232.1Q672.7 232.1 673.5 231.6Q674.3 231.1 674.8 229.8L674.8 229.8L675.2 228.6L665.5 200.6L673.4 200.6L679.1 220.6L679.3 220.6L685.0 200.6L693.0 200.6L682.4 230.8Q681.7 233.0 680.4 234.6Q679.1 236.3 677.1 237.2Q675.1 238.1 672.3 238.1ZM704.2 227.8L696.6 227.8L696.6 200.6L703.9 200.6L703.9 205.3L704.2 205.3Q705.0 202.8 706.7 201.5Q708.5 200.2 710.8 200.2L710.8 200.2Q711.3 200.2 712.0 200.3Q712.6 200.3 713.1 200.4L713.1 200.4L713.1 207.2Q712.6 207.0 711.7 206.9Q710.7 206.7 709.9 206.7L709.9 206.7Q708.3 206.7 707.0 207.5Q705.7 208.2 704.9 209.5Q704.2 210.7 704.2 212.4L704.2 212.4L704.2 227.8ZM724.3 227.8L716.7 227.8L716.7 200.6L724.3 200.6L724.3 227.8ZM720.5 197.1L720.5 197.1Q718.8 197.1 717.6 195.9Q716.4 194.8 716.4 193.2L716.4 193.2Q716.4 191.7 717.6 190.5Q718.8 189.4 720.5 189.4L720.5 189.4Q722.2 189.4 723.4 190.5Q724.6 191.7 724.6 193.2L724.6 193.2Q724.6 194.8 723.4 195.9Q722.2 197.1 720.5 197.1ZM742.3 228.4L742.3 228.4Q738.1 228.4 735.1 226.6Q732.1 224.8 730.5 221.6Q728.9 218.5 728.9 214.3L728.9 214.3Q728.9 210.1 730.5 207.0Q732.1 203.8 735.1 202.0Q738.1 200.2 742.3 200.2L742.3 200.2Q745.9 200.2 748.5 201.5Q751.2 202.8 752.8 205.2Q754.3 207.5 754.5 210.7L754.5 210.7L747.4 210.7Q747.1 208.6 745.8 207.4Q744.5 206.1 742.4 206.1L742.4 206.1Q740.6 206.1 739.3 207.1Q738.0 208.0 737.3 209.8Q736.6 211.6 736.6 214.2L736.6 214.2Q736.6 216.8 737.3 218.6Q738.0 220.5 739.3 221.4Q740.6 222.4 742.4 222.4L742.4 222.4Q743.7 222.4 744.7 221.9Q745.8 221.3 746.5 220.3Q747.1 219.3 747.4 217.8L747.4 217.8L754.5 217.8Q754.3 221.0 752.8 223.3Q751.3 225.7 748.6 227.0Q746.0 228.4 742.3 228.4ZM781.7 208.3L781.7 208.3L774.8 208.8Q774.6 207.9 774.0 207.2Q773.5 206.4 772.5 206.0Q771.6 205.6 770.2 205.6L770.2 205.6Q768.5 205.6 767.3 206.3Q766.1 207.1 766.1 208.3L766.1 208.3Q766.1 209.3 766.9 209.9Q767.6 210.6 769.5 211.0L769.5 211.0L774.5 212.0Q778.4 212.8 780.4 214.6Q782.4 216.4 782.4 219.4L782.4 219.4Q782.4 222.1 780.8 224.1Q779.2 226.1 776.5 227.2Q773.8 228.4 770.2 228.4L770.2 228.4Q764.8 228.4 761.6 226.1Q758.4 223.8 757.8 219.9L757.8 219.9L765.3 219.6Q765.6 221.2 766.9 222.1Q768.2 222.9 770.2 222.9L770.2 222.9Q772.2 222.9 773.4 222.2Q774.7 221.4 774.7 220.2L774.7 220.2Q774.7 219.1 773.8 218.5Q772.9 217.8 771.2 217.4L771.2 217.4L766.4 216.5Q762.5 215.7 760.5 213.7Q758.6 211.8 758.6 208.7L758.6 208.7Q758.6 206.1 760.0 204.2Q761.4 202.3 764.0 201.2Q766.6 200.2 770.1 200.2L770.1 200.2Q775.3 200.2 778.3 202.4Q781.2 204.6 781.7 208.3ZM791.2 228.3L791.2 228.3Q789.5 228.3 788.2 227.1Q787.0 225.8 787.0 224.0L787.0 224.0Q787.0 222.3 788.2 221.1Q789.5 219.8 791.2 219.8L791.2 219.8Q792.9 219.8 794.2 221.1Q795.5 222.3 795.5 224.0L795.5 224.0Q795.5 225.2 794.9 226.2Q794.3 227.2 793.3 227.7Q792.4 228.3 791.2 228.3Z "/></svg>